<svg width="576" height="261" viewBox="0 0 576 261" fill="none" xmlns="http://www.w3.org/2000/svg">
<path d="M120.053 52.53C119.393 50.4767 118.55 49.0467 117.523 48.24C116.57 47.4333 114.883 47.03 112.463 47.03V43.4H147.113V47.03H142.933C141.687 47.03 140.77 47.25 140.183 47.69C139.67 48.0567 139.413 48.7167 139.413 49.67C139.413 50.33 139.523 51.1 139.743 51.98L150.633 90.7H150.853L165.593 44.94H178.133L192.213 89.82H192.433L202.333 52.2C202.553 51.32 202.663 50.55 202.663 49.89C202.663 48.8633 202.333 48.13 201.673 47.69C201.013 47.25 199.913 47.03 198.373 47.03H194.413V43.4H214.653V47.03C213.04 47.03 211.757 47.25 210.803 47.69C209.923 48.0567 209.117 48.9 208.383 50.22C207.723 51.4667 207.027 53.4467 206.293 56.16L189.903 116H181.103L164.163 62.43H163.943L146.783 116H138.533L120.053 52.53ZM275.641 106.87C275.641 108.483 275.787 109.657 276.081 110.39C276.374 111.123 276.961 111.637 277.841 111.93C278.721 112.223 280.114 112.37 282.021 112.37V116H252.871V112.37C254.484 112.37 255.657 112.26 256.391 112.04C257.124 111.747 257.601 111.27 257.821 110.61C258.041 109.95 258.151 108.887 258.151 107.42V81.02C258.151 76.84 257.527 73.87 256.281 72.11C255.107 70.35 253.347 69.47 251.001 69.47C249.387 69.47 247.921 69.8733 246.601 70.68C245.354 71.4133 243.777 72.7333 241.871 74.64V106.87C241.871 109.217 242.237 110.72 242.971 111.38C243.704 112.04 245.317 112.37 247.811 112.37V116H217.341V112.37C219.467 112.37 221.007 112.26 221.961 112.04C222.914 111.747 223.537 111.233 223.831 110.5C224.197 109.767 224.381 108.557 224.381 106.87V50.22C224.381 48.7533 224.161 47.8 223.721 47.36C223.354 46.8467 222.511 46.59 221.191 46.59H217.341V42.96L236.041 40.1H241.871V70.35H241.981C246.454 65.4367 252.137 62.98 259.031 62.98C270.104 62.98 275.641 68.9933 275.641 81.02V106.87ZM341.679 113.69C339.553 115.083 337.353 116.037 335.079 116.55C332.879 117.063 330.459 117.32 327.819 117.32C325.179 117.32 322.979 116.88 321.219 116C319.533 115.12 318.213 114.02 317.259 112.7C313.006 115.78 307.873 117.32 301.859 117.32C291.006 117.32 285.579 113.25 285.579 105.11C285.579 100.27 288.256 96.2367 293.609 93.01C299.036 89.71 306.553 87.18 316.159 85.42V76.29C316.159 72.99 315.646 70.6067 314.619 69.14C313.666 67.6 311.869 66.83 309.229 66.83C307.616 66.83 306.296 67.0867 305.269 67.6C304.243 68.04 303.729 68.7367 303.729 69.69C303.729 70.13 303.839 70.57 304.059 71.01C304.353 71.3767 304.536 71.6333 304.609 71.78C305.636 73.1733 306.149 74.6033 306.149 76.07C306.149 78.05 305.343 79.81 303.729 81.35C302.189 82.89 300.136 83.66 297.569 83.66C295.003 83.66 292.949 82.9267 291.409 81.46C289.943 79.9933 289.209 78.3067 289.209 76.4C289.209 74.2733 290.053 72.22 291.739 70.24C293.426 68.1867 296.176 66.4633 299.989 65.07C303.876 63.6767 308.826 62.98 314.839 62.98C321.439 62.98 326.243 64.52 329.249 67.6C332.256 70.68 333.759 75.3 333.759 81.46V105.55C333.759 107.97 333.943 109.583 334.309 110.39C334.676 111.197 335.299 111.6 336.179 111.6C337.426 111.6 338.416 111.417 339.149 111.05C339.883 110.61 340.286 110.353 340.359 110.28L341.679 113.69ZM303.179 103.46C303.179 106.393 303.693 108.483 304.719 109.73C305.746 110.903 307.323 111.49 309.449 111.49C311.503 111.49 313.739 110.61 316.159 108.85V90.15C311.613 91.5433 308.313 93.34 306.259 95.54C304.206 97.6667 303.179 100.307 303.179 103.46ZM364.791 117.32C359.511 117.32 355.588 115.963 353.021 113.25C350.455 110.463 349.171 105.733 349.171 99.06V67.93H342.461V64.3C345.468 64.0067 348.438 62.7967 351.371 60.67C354.305 58.5433 356.871 55.94 359.071 52.86C361.271 49.7067 362.811 46.5533 363.691 43.4H366.661V64.3H376.781V67.93H366.661V100.49C366.661 104.083 367.028 106.723 367.761 108.41C368.568 110.097 369.961 110.94 371.941 110.94C374.068 110.94 376.231 110.023 378.431 108.19L380.741 111.6C380.521 111.82 379.678 112.48 378.211 113.58C376.818 114.607 374.948 115.487 372.601 116.22C370.255 116.953 367.651 117.32 364.791 117.32ZM391.253 65.18C392.94 64.8867 394.59 64.3 396.203 63.42C397.816 62.4667 398.623 61.2933 398.623 59.9C398.623 59.1667 398.44 58.69 398.073 58.47C397.706 58.1767 397.01 57.8833 395.983 57.59C393.856 56.93 392.133 55.8667 390.813 54.4C389.493 52.9333 388.833 51.1 388.833 48.9C388.833 46.5533 389.566 44.5 391.033 42.74C392.5 40.98 394.626 40.1 397.413 40.1C399.906 40.1 401.996 40.9433 403.683 42.63C405.443 44.2433 406.323 46.8833 406.323 50.55C406.323 55.17 404.966 59.2033 402.253 62.65C399.613 66.0967 396.093 68.1133 391.693 68.7L391.253 65.18ZM439.682 117.32C437.336 117.32 435.392 117.137 433.852 116.77C432.386 116.477 430.882 116.073 429.342 115.56C427.802 115.047 426.629 114.79 425.822 114.79C424.796 114.79 423.879 115.193 423.072 116H420.102L419.112 98.18H423.072C423.659 103.093 425.346 106.907 428.132 109.62C430.992 112.333 434.622 113.69 439.022 113.69C442.102 113.69 444.669 113.03 446.722 111.71C448.849 110.39 449.912 108.337 449.912 105.55C449.912 103.643 449.289 102.103 448.042 100.93C446.796 99.7567 444.742 98.8033 441.882 98.07L433.522 95.98C428.389 94.66 424.612 92.7167 422.192 90.15C419.846 87.51 418.672 84.2467 418.672 80.36C418.672 75.1533 420.542 70.9733 424.282 67.82C428.022 64.5933 433.119 62.98 439.572 62.98C441.626 62.98 443.276 63.1267 444.522 63.42C445.769 63.64 447.199 64.0067 448.812 64.52C450.206 65.0333 451.269 65.29 452.002 65.29C452.736 65.29 453.286 65.1433 453.652 64.85C454.019 64.4833 454.312 63.97 454.532 63.31H457.502L458.272 79.37H454.642C452.222 70.79 447.529 66.5 440.562 66.5C437.702 66.5 435.392 67.1967 433.632 68.59C431.872 69.91 430.992 71.5967 430.992 73.65C430.992 75.7767 431.836 77.3533 433.522 78.38C435.282 79.3333 437.666 80.2133 440.672 81.02L446.942 82.67C452.442 84.1367 456.329 86.1533 458.602 88.72C460.949 91.2133 462.122 94.4767 462.122 98.51C462.122 104.157 460.179 108.703 456.292 112.15C452.406 115.597 446.869 117.32 439.682 117.32Z" fill="black"/>
<path d="M74.09 195.314H75.52C77.3533 195.314 78.71 195.131 79.59 194.764C80.47 194.397 81.0567 193.847 81.35 193.114C81.6433 192.307 81.79 191.097 81.79 189.484V136.244C81.79 134.337 81.6067 132.981 81.24 132.174C80.9467 131.367 80.25 130.817 79.15 130.524C78.1233 130.231 76.4 130.047 73.98 129.974V126.344H100.71L119.52 173.864H119.63L137.89 126.344H163.41V129.974C161.063 130.047 159.377 130.231 158.35 130.524C157.323 130.817 156.663 131.367 156.37 132.174C156.077 132.981 155.93 134.337 155.93 136.244V189.154C155.93 190.987 156.077 192.344 156.37 193.224C156.737 194.031 157.433 194.581 158.46 194.874C159.487 195.167 161.137 195.314 163.41 195.314V198.944H130.19V195.314C132.317 195.314 133.82 195.167 134.7 194.874C135.653 194.507 136.277 193.921 136.57 193.114C136.863 192.307 137.01 190.987 137.01 189.154V139.544H136.79L115.45 196.414H108.41L86.41 140.644H86.3V189.484C86.3 191.904 86.6667 193.481 87.4 194.214C88.2067 194.947 89.93 195.314 92.57 195.314H94.77V198.944H74.09V195.314ZM222.838 147.244V150.874C221.298 150.874 220.052 151.277 219.098 152.084C218.145 152.817 217.118 154.431 216.018 156.924L198.968 197.624C198.162 199.457 197.392 201.401 196.658 203.454C194.898 207.854 193.358 211.301 192.038 213.794C190.792 216.287 189.178 218.304 187.198 219.844C185.218 221.457 182.762 222.264 179.828 222.264C176.822 222.264 174.182 221.201 171.908 219.074C169.635 217.021 168.498 214.527 168.498 211.594C168.498 209.541 169.195 207.744 170.588 206.204C172.055 204.737 173.888 204.004 176.088 204.004C178.362 204.004 180.158 204.664 181.478 205.984C182.798 207.304 183.458 208.991 183.458 211.044C183.458 212.291 183.128 213.317 182.468 214.124C181.882 214.931 181.588 215.554 181.588 215.994C181.588 216.654 181.735 217.167 182.028 217.534C182.395 217.974 182.872 218.194 183.458 218.194C184.265 218.194 185.292 217.277 186.538 215.444C187.858 213.684 189.252 211.007 190.718 207.414L193.028 201.694L173.888 155.384C173.302 153.917 172.752 152.891 172.238 152.304C171.798 151.717 171.138 151.351 170.258 151.204C169.452 150.984 168.132 150.874 166.298 150.874V147.244H197.428V150.874H194.238C193.578 150.874 193.028 151.057 192.588 151.424C192.222 151.791 192.038 152.341 192.038 153.074C192.038 153.661 192.148 154.284 192.368 154.944L201.608 179.364H201.938L212.058 154.174C212.278 153.734 212.388 153.294 212.388 152.854C212.388 152.267 212.168 151.791 211.728 151.424C211.362 151.057 210.812 150.874 210.078 150.874H206.888V147.244H222.838ZM250.728 195.314C253.221 195.314 254.944 195.204 255.898 194.984C256.924 194.691 257.584 194.141 257.878 193.334C258.171 192.527 258.318 191.134 258.318 189.154V136.354C258.318 134.301 258.171 132.871 257.878 132.064C257.584 131.257 256.924 130.707 255.898 130.414C254.871 130.121 253.148 129.974 250.728 129.974V126.344H284.718V129.974C282.371 129.974 280.684 130.121 279.658 130.414C278.704 130.707 278.044 131.294 277.678 132.174C277.384 132.981 277.238 134.374 277.238 136.354V188.714C277.238 190.694 277.348 192.087 277.568 192.894C277.861 193.627 278.448 194.141 279.328 194.434C280.281 194.727 281.858 194.874 284.058 194.874C290.364 194.874 295.278 193.811 298.798 191.684C302.318 189.484 304.664 185.524 305.838 179.804H310.348L309.028 198.944H250.728V195.314ZM343.98 200.264C334.373 200.264 327.223 198.027 322.53 193.554C317.91 189.081 315.6 182.297 315.6 173.204C315.6 163.964 317.947 157.107 322.64 152.634C327.407 148.161 334.593 145.924 344.2 145.924C353.66 145.924 360.7 148.161 365.32 152.634C369.94 157.034 372.25 163.817 372.25 172.984C372.25 182.224 369.94 189.081 365.32 193.554C360.7 198.027 353.587 200.264 343.98 200.264ZM344.09 196.744C347.537 196.744 350.03 195.021 351.57 191.574C353.11 188.054 353.88 182.444 353.88 174.744C353.88 165.797 353.147 159.344 351.68 155.384C350.213 151.424 347.61 149.444 343.87 149.444C340.277 149.444 337.71 151.461 336.17 155.494C334.703 159.454 333.97 165.467 333.97 173.534C333.97 181.894 334.703 187.871 336.17 191.464C337.71 194.984 340.35 196.744 344.09 196.744ZM406.929 200.264C397.323 200.264 390.173 198.027 385.479 193.554C380.859 189.081 378.549 182.297 378.549 173.204C378.549 163.964 380.896 157.107 385.589 152.634C390.356 148.161 397.543 145.924 407.149 145.924C416.609 145.924 423.649 148.161 428.269 152.634C432.889 157.034 435.199 163.817 435.199 172.984C435.199 182.224 432.889 189.081 428.269 193.554C423.649 198.027 416.536 200.264 406.929 200.264ZM407.039 196.744C410.486 196.744 412.979 195.021 414.519 191.574C416.059 188.054 416.829 182.444 416.829 174.744C416.829 165.797 416.096 159.344 414.629 155.384C413.163 151.424 410.559 149.444 406.819 149.444C403.226 149.444 400.659 151.461 399.119 155.494C397.653 159.454 396.919 165.467 396.919 173.534C396.919 181.894 397.653 187.871 399.119 191.464C400.659 194.984 403.299 196.744 407.039 196.744ZM502.71 195.314V198.944H472.24V195.314H474.22C474.953 195.314 475.43 195.241 475.65 195.094C475.943 194.874 476.09 194.581 476.09 194.214C476.09 193.847 475.76 193.151 475.1 192.124C474.44 191.024 473.963 190.254 473.67 189.814L464.32 174.634L463 175.734V189.814C463 191.574 463.073 192.821 463.22 193.554C463.44 194.214 463.88 194.691 464.54 194.984C465.273 195.204 466.483 195.314 468.17 195.314V198.944H438.47V195.314C440.597 195.314 442.137 195.204 443.09 194.984C444.043 194.691 444.667 194.177 444.96 193.444C445.327 192.711 445.51 191.501 445.51 189.814V133.164C445.51 131.697 445.29 130.744 444.85 130.304C444.483 129.791 443.64 129.534 442.32 129.534H438.47V125.904L457.17 123.044H463V170.674L477.08 158.244C479.793 155.824 481.15 153.881 481.15 152.414C481.15 151.314 480.343 150.764 478.73 150.764H475.87V147.134L497.32 147.244V150.874H496.88C494.313 150.874 491.967 151.534 489.84 152.854C487.787 154.174 485.073 156.337 481.7 159.344L479.28 161.434L476.53 163.854L491.27 184.974C493.763 188.567 495.817 191.207 497.43 192.894C499.043 194.507 500.437 195.314 501.61 195.314H502.71Z" fill="black"/>
<path d="M575.44 131.183C575.44 173.234 542.968 205.562 490.13 227.4C437.313 249.23 364.305 260.5 283.62 260.5C202.94 260.5 132.11 248.207 81.4704 225.868C30.8129 203.521 0.5 171.196 0.5 131.183C0.5 91.1681 30.8155 58.5022 81.4729 35.8143C132.112 13.1345 202.941 0.5 283.62 0.5C364.304 0.5 437.311 12.1109 490.128 34.2817C542.966 56.4613 575.44 89.1302 575.44 131.183Z" stroke="black"/>
</svg>
